<svg width="24" height="25" viewBox="0 0 24 25" fill="none" xmlns="http://www.w3.org/2000/svg">
<path d="M6.75 3C7.30812 3 7.86077 3.10993 8.37641 3.32351C8.89204 3.53709 9.36056 3.85015 9.75521 4.2448C10.1499 4.63945 10.4629 5.10796 10.6765 5.6236C10.8901 6.13923 11 6.69188 11 7.25V11.5H6.75C5.62283 11.5 4.54183 11.0522 3.7448 10.2552C2.94777 9.45817 2.5 8.37717 2.5 7.25C2.5 6.12283 2.94777 5.04183 3.7448 4.2448C4.54183 3.44777 5.62283 3 6.75 3ZM6.75 13.5H11V17.75C11 18.5906 10.7507 19.4123 10.2837 20.1112C9.81675 20.8101 9.15299 21.3548 8.37641 21.6765C7.59982 21.9982 6.74529 22.0823 5.92087 21.9183C5.09645 21.7543 4.33917 21.3496 3.7448 20.7552C3.15042 20.1608 2.74565 19.4036 2.58166 18.5791C2.41768 17.7547 2.50184 16.9002 2.82351 16.1236C3.14519 15.347 3.68992 14.6833 4.38883 14.2163C5.08774 13.7493 5.90943 13.5 6.75 13.5ZM17.25 3C18.3772 3 19.4582 3.44777 20.2552 4.2448C21.0522 5.04183 21.5 6.12283 21.5 7.25C21.5 8.37717 21.0522 9.45817 20.2552 10.2552C19.4582 11.0522 18.3772 11.5 17.25 11.5H13V7.25C13 6.12283 13.4478 5.04183 14.2448 4.2448C15.0418 3.44777 16.1228 3 17.25 3ZM13 13.5H17.25C18.0906 13.5 18.9123 13.7493 19.6112 14.2163C20.3101 14.6833 20.8548 15.347 21.1765 16.1236C21.4982 16.9002 21.5823 17.7547 21.4183 18.5791C21.2544 19.4036 20.8496 20.1608 20.2552 20.7552C19.6608 21.3496 18.9036 21.7543 18.0791 21.9183C17.2547 22.0823 16.4002 21.9982 15.6236 21.6765C14.847 21.3548 14.1833 20.8101 13.7163 20.1112C13.2493 19.4123 13 18.5906 13 17.75V13.5Z" fill="#573F89"/>
</svg>
