<svg width="152" height="128" viewBox="0 0 152 128" fill="none" xmlns="http://www.w3.org/2000/svg">
<g filter="url(#filter0_d_105_3289)">
<path d="M28.1128 18.5224C32.8515 14.1478 52.8191 22.2766 62.2105 26.8878C72.6676 22.8964 87.6449 24.8247 93.3205 27.0393C101.322 21.6041 124.896 14.7316 128.801 21.0012C133.201 28.0677 127.775 49.6074 123.154 57.9745C126.231 64.0997 126.902 88.1407 120.274 99.058C111.45 113.591 92.4992 118.001 71.4486 115.885C50.3979 113.769 32.5033 103.089 28.6048 88.9444C25.4859 77.6286 29.9998 61.2768 32.6466 54.5154C29.1609 44.3405 23.3742 22.897 28.1128 18.5224Z" fill="white"/>
<path d="M51.4228 32.3013C45.985 34.6728 39.6063 42.5415 37.0967 46.1794C34.3386 40.2915 30.5397 27.5494 33.2283 25.1022C36.5258 22.1009 46.8266 28.7637 51.4228 32.3013Z" fill="#6C38DD"/>
<path d="M104.653 30.905C109.853 33.7597 115.492 42.1742 117.662 46.0246C120.942 40.4109 125.881 28.0656 123.425 25.3848C120.413 22.097 109.551 27.7986 104.653 30.905Z" fill="#6C38DD"/>
<path fill-rule="evenodd" clip-rule="evenodd" d="M133.998 83.2145C126.653 79.0354 120.171 80.3273 117.934 81.4265C117.646 81.5683 117.297 81.4493 117.155 81.1607C117.013 80.872 117.132 80.5231 117.421 80.3812C119.99 79.1184 126.881 77.8253 134.574 82.2022C134.854 82.3613 134.951 82.7168 134.792 82.9963C134.633 83.2759 134.278 83.3735 133.998 83.2145Z" fill="#1C0352"/>
<path fill-rule="evenodd" clip-rule="evenodd" d="M139.602 74.3207C129.215 70.4312 121.066 73.4456 118.364 75.3572C118.101 75.5429 117.738 75.4807 117.552 75.2181C117.367 74.9556 117.429 74.5922 117.691 74.4064C120.696 72.2806 129.248 69.2001 140.01 73.2301C140.312 73.3428 140.464 73.6784 140.352 73.9796C140.239 74.2808 139.903 74.4335 139.602 74.3207Z" fill="#1C0352"/>
<path fill-rule="evenodd" clip-rule="evenodd" d="M11.7866 71.8803C22.174 67.9907 30.3228 71.0052 33.0247 72.9167C33.2872 73.1025 33.6506 73.0402 33.8364 72.7777C34.0221 72.5151 33.9599 72.1517 33.6973 71.966C30.6925 69.8401 22.1404 66.7597 11.3782 70.7896C11.077 70.9024 10.9243 71.238 11.0371 71.5392C11.1498 71.8404 11.4854 71.9931 11.7866 71.8803Z" fill="#1C0352"/>
<path fill-rule="evenodd" clip-rule="evenodd" d="M17.3874 80.7741C24.7327 76.595 31.2148 77.8869 33.4516 78.986C33.7402 79.1279 34.0892 79.0089 34.231 78.7202C34.3728 78.4316 34.2538 78.0826 33.9652 77.9408C31.3954 76.678 24.5046 75.3848 16.8115 79.7618C16.5319 79.9208 16.4343 80.2764 16.5933 80.5559C16.7523 80.8354 17.1079 80.9331 17.3874 80.7741Z" fill="#1C0352"/>
</g>
<path d="M64.5796 58.297C64.5796 64.0586 59.9088 68.7293 54.1472 68.7293C48.3856 68.7293 43.7148 64.0586 43.7148 58.297C43.7148 52.5353 48.3856 47.8646 54.1472 47.8646C59.9088 47.8646 64.5796 52.5353 64.5796 58.297Z" fill="white"/>
<path fill-rule="evenodd" clip-rule="evenodd" d="M54.1472 67.0964C59.007 67.0964 62.9467 63.1568 62.9467 58.297C62.9467 53.4372 59.007 49.4975 54.1472 49.4975C49.2874 49.4975 45.3477 53.4372 45.3477 58.297C45.3477 63.1568 49.2874 67.0964 54.1472 67.0964ZM54.1472 68.7293C59.9088 68.7293 64.5796 64.0586 64.5796 58.297C64.5796 52.5353 59.9088 47.8646 54.1472 47.8646C48.3856 47.8646 43.7148 52.5353 43.7148 58.297C43.7148 64.0586 48.3856 68.7293 54.1472 68.7293Z" fill="#1C0352"/>
<path d="M110.779 60.2839C110.779 66.0456 106.108 70.7163 100.346 70.7163C94.5848 70.7163 89.9141 66.0456 89.9141 60.2839C89.9141 54.5223 94.5848 49.8516 100.346 49.8516C106.108 49.8516 110.779 54.5223 110.779 60.2839Z" fill="white"/>
<path fill-rule="evenodd" clip-rule="evenodd" d="M100.346 69.0834C105.206 69.0834 109.146 65.1437 109.146 60.2839C109.146 55.4241 105.206 51.4845 100.346 51.4845C95.4866 51.4845 91.547 55.4241 91.547 60.2839C91.547 65.1437 95.4866 69.0834 100.346 69.0834ZM100.346 70.7163C106.108 70.7163 110.779 66.0456 110.779 60.2839C110.779 54.5223 106.108 49.8516 100.346 49.8516C94.5848 49.8516 89.9141 54.5223 89.9141 60.2839C89.9141 66.0456 94.5848 70.7163 100.346 70.7163Z" fill="#1C0352"/>
<path d="M58.3629 62.722C58.3629 65.1913 56.3612 67.193 53.8919 67.193C51.4226 67.193 49.4209 65.1913 49.4209 62.722C49.4209 60.2527 51.4226 58.251 53.8919 58.251C56.3612 58.251 58.3629 60.2527 58.3629 62.722Z" fill="#1C0352"/>
<path d="M104.22 65.2007C104.22 67.67 102.219 69.6718 99.7493 69.6718C97.2801 69.6718 95.2783 67.67 95.2783 65.2007C95.2783 62.7315 97.2801 60.7297 99.7493 60.7297C102.219 60.7297 104.22 62.7315 104.22 65.2007Z" fill="#1C0352"/>
<path d="M82.178 74.8355C81.8445 76.5337 78.3184 78.7346 74.1411 78.3985C69.9638 78.0624 67.0508 75.8651 67.0508 73.6184C67.0508 70.7623 70.8283 70.4262 75.0055 70.7623C79.1828 71.0984 82.7222 72.0651 82.178 74.8355Z" fill="#1C0352"/>
<path d="M73.6571 103.18C66.901 102.982 66.4538 96.4738 67.199 93.4931C70.6764 92.7479 73.1604 90.7608 74.1539 87.7802C74.7501 90.1647 78.625 92.334 80.3638 92.9963C80.8605 96.391 81.3573 103.407 73.6571 103.18Z" fill="#F52525"/>
<path fill-rule="evenodd" clip-rule="evenodd" d="M66.3765 92.7735C69.6478 92.4579 72.5985 90.2822 73.3647 87.3268C73.4505 86.9958 73.7336 86.7533 74.0739 86.7193C74.4142 86.6853 74.7396 86.867 74.8892 87.1746C75.9389 89.3322 77.31 90.6503 78.7501 91.379C80.1952 92.1102 81.7636 92.2751 83.246 92.0351C84.7335 91.7942 86.1127 91.1484 87.1533 90.2901C88.2011 89.4257 88.8482 88.3968 88.9961 87.4106C89.063 86.9647 89.4787 86.6574 89.9247 86.7243C90.3706 86.7912 90.6779 87.2069 90.611 87.6528C90.3863 89.1506 89.4499 90.5123 88.1924 91.5497C86.9276 92.5931 85.2796 93.36 83.507 93.647C81.7292 93.9348 79.8046 93.7426 78.0129 92.836C76.6249 92.1337 75.3486 91.0188 74.2931 89.4241C72.8181 92.2389 69.7382 94.0896 66.5333 94.3989C62.6479 94.7738 58.5077 92.9047 56.5051 87.8315C56.3395 87.4121 56.5453 86.9379 56.9647 86.7723C57.3842 86.6067 57.8584 86.8125 58.0239 87.2319C59.7472 91.5975 63.1829 93.0817 66.3765 92.7735Z" fill="#1C0352"/>
<path fill-rule="evenodd" clip-rule="evenodd" d="M74.9835 85.0005C74.9907 86.12 74.9971 87.1226 74.9695 87.8127L73.3379 87.7474C73.364 87.0939 73.3579 86.1595 73.3508 85.0729C73.3469 84.4722 73.3427 83.825 73.3434 83.1529C73.3455 81.3014 73.3862 79.2861 73.5928 77.7366L75.2114 77.9524C75.0206 79.3835 74.9784 81.3011 74.9763 83.1547C74.9756 83.7834 74.9797 84.4083 74.9835 85.0005Z" fill="#1C0352"/>
<path d="M70.183 83.0594C70.183 83.3338 69.9606 83.5562 69.6862 83.5562C69.4119 83.5562 69.1895 83.3338 69.1895 83.0594C69.1895 82.785 69.4119 82.5626 69.6862 82.5626C69.9606 82.5626 70.183 82.785 70.183 83.0594Z" fill="#1C0352"/>
<path d="M69.685 87.5307C69.685 87.8051 69.4625 88.0275 69.1882 88.0275C68.9138 88.0275 68.6914 87.8051 68.6914 87.5307C68.6914 87.2564 68.9138 87.0339 69.1882 87.0339C69.4625 87.0339 69.685 87.2564 69.685 87.5307Z" fill="#1C0352"/>
<path d="M63.7221 87.0346C63.7221 87.309 63.4997 87.5314 63.2253 87.5314C62.9509 87.5314 62.7285 87.309 62.7285 87.0346C62.7285 86.7603 62.9509 86.5378 63.2253 86.5378C63.4997 86.5378 63.7221 86.7603 63.7221 87.0346Z" fill="#1C0352"/>
<path d="M85.0854 88.5245C85.0854 88.7989 84.8629 89.0213 84.5886 89.0213C84.3142 89.0213 84.0918 88.7989 84.0918 88.5245C84.0918 88.2501 84.3142 88.0277 84.5886 88.0277C84.8629 88.0277 85.0854 88.2501 85.0854 88.5245Z" fill="#1C0352"/>
<path d="M80.1645 87.1533C80.1645 87.4276 79.942 87.6501 79.6677 87.6501C79.3933 87.6501 79.1709 87.4276 79.1709 87.1533C79.1709 86.8789 79.3933 86.6565 79.6677 86.6565C79.942 86.6565 80.1645 86.8789 80.1645 87.1533Z" fill="#1C0352"/>
<path d="M78.9379 82.4755C78.9379 82.7499 78.7155 82.9723 78.4411 82.9723C78.1668 82.9723 77.9443 82.7499 77.9443 82.4755C77.9443 82.2012 78.1668 81.9788 78.4411 81.9788C78.7155 81.9788 78.9379 82.2012 78.9379 82.4755Z" fill="#1C0352"/>
<defs>
<filter id="filter0_d_105_3289" x="0" y="6.2699" width="151.389" height="121.115" filterUnits="userSpaceOnUse" color-interpolation-filters="sRGB">
<feFlood flood-opacity="0" result="BackgroundImageFix"/>
<feColorMatrix in="SourceAlpha" type="matrix" values="0 0 0 0 0 0 0 0 0 0 0 0 0 0 0 0 0 0 127 0" result="hardAlpha"/>
<feOffset/>
<feGaussianBlur stdDeviation="5.5"/>
<feComposite in2="hardAlpha" operator="out"/>
<feColorMatrix type="matrix" values="0 0 0 0 0.0392157 0 0 0 0 0.145098 0 0 0 0 0.25098 0 0 0 0.15 0"/>
<feBlend mode="normal" in2="BackgroundImageFix" result="effect1_dropShadow_105_3289"/>
<feBlend mode="normal" in="SourceGraphic" in2="effect1_dropShadow_105_3289" result="shape"/>
</filter>
</defs>
</svg>
