<svg width="421" height="286" viewBox="0 0 421 286" fill="none" xmlns="http://www.w3.org/2000/svg">
<g filter="url(#filter0_d_84_5372)">
<path d="M135.121 40.7742C145.551 35.1522 177.375 58.7328 191.983 71.2259C212.415 68.8961 238.188 79.1645 247.278 85.6963C263.999 79.6761 309.088 78.2068 313.175 91.1463C317.781 105.731 298.292 141.586 286.248 154.367C288.93 166.672 279.149 209.762 262.37 226.165C240.034 248 204.295 247.198 167.799 233.823C131.303 220.448 104.333 193.274 103.851 166.322C103.466 144.761 118.963 117.722 126.76 106.897C125.201 87.1987 124.692 46.3963 135.121 40.7742Z" fill="white"/>
<path d="M170.314 75.9361C159.554 77.6744 144.611 88.7659 138.484 94.0943C136.263 82.3573 135.319 57.9471 141.221 54.8194C148.459 50.9834 163.749 67.5426 170.314 75.9361Z" fill="#7C47EF"/>
<path d="M265.691 97.7486C273.643 105.203 279.837 122.751 281.941 130.594C290.341 122.101 304.764 102.386 301.618 96.4938C297.759 89.2679 275.825 94.4563 265.691 97.7486Z" fill="#7C47EF"/>
<path fill-rule="evenodd" clip-rule="evenodd" d="M294.032 204.235C282.868 193.445 270.742 192.785 266.26 193.72C265.682 193.841 265.115 193.47 264.994 192.891C264.874 192.313 265.245 191.746 265.823 191.626C270.973 190.551 283.826 191.395 295.519 202.696C295.944 203.107 295.955 203.784 295.545 204.209C295.134 204.634 294.457 204.646 294.032 204.235Z" fill="#0A2540"/>
<path fill-rule="evenodd" clip-rule="evenodd" d="M308.062 190.965C291.352 179.302 275.474 180.947 269.794 183.115C269.242 183.326 268.623 183.049 268.413 182.497C268.202 181.945 268.479 181.327 269.031 181.116C275.348 178.705 291.974 177.126 309.287 189.211C309.771 189.549 309.89 190.216 309.552 190.7C309.214 191.185 308.547 191.304 308.062 190.965Z" fill="#0A2540"/>
<path fill-rule="evenodd" clip-rule="evenodd" d="M81.7111 128.278C101.972 126.098 115.098 135.182 119.034 139.817C119.416 140.267 120.091 140.322 120.542 139.94C120.992 139.558 121.047 138.882 120.665 138.432C116.288 133.277 102.474 123.892 81.4822 126.151C80.8947 126.214 80.4698 126.741 80.533 127.329C80.5962 127.916 81.1237 128.341 81.7111 128.278Z" fill="#0A2540"/>
<path fill-rule="evenodd" clip-rule="evenodd" d="M87.622 146.663C102.601 142.579 113.547 147.836 117.026 150.814C117.475 151.198 118.15 151.145 118.535 150.696C118.919 150.247 118.866 149.572 118.417 149.188C114.421 145.767 102.748 140.321 87.0592 144.598C86.4891 144.754 86.153 145.342 86.3084 145.912C86.4638 146.482 87.052 146.818 87.622 146.663Z" fill="#0A2540"/>
</g>
<circle cx="163.299" cy="123.441" r="17.6665" transform="rotate(14.3862 163.299 123.441)" fill="white" stroke="#0A2540" stroke-width="3"/>
<circle cx="244.61" cy="148.067" r="17.6665" transform="rotate(14.3862 244.61 148.067)" fill="white" stroke="#0A2540" stroke-width="3"/>
<path d="M205.631 165.67C204.263 168.54 196.983 170.847 189.702 168.342C182.422 165.837 178.241 160.597 179.266 156.599C180.57 151.516 187.446 152.642 194.726 155.147C202.007 157.652 207.864 160.988 205.631 165.67Z" fill="#0A2540"/>
<path d="M177.533 212.223C165.601 208.785 167.776 197 170.462 192.036C176.991 192.297 182.318 189.894 185.447 185.044C185.42 189.559 191.325 195.188 194.117 197.161C193.452 203.429 191.133 216.141 177.533 212.223Z" fill="#F52525"/>
<path d="M213.408 191.745C209.814 200.245 189.321 202.998 185.56 184.602C179.404 195.743 157.823 195.39 155.501 176.892" stroke="#0A2540" stroke-width="3" stroke-linecap="round" stroke-linejoin="round"/>
<path d="M185.447 185.043C186.539 181.398 188.357 172.598 190.424 167.475" stroke="#0A2540" stroke-width="3"/>
<circle cx="179.645" cy="174.604" r="0.912692" transform="rotate(14.3862 179.645 174.604)" fill="#0A2540"/>
<circle cx="176.72" cy="182.334" r="0.912692" transform="rotate(14.3862 176.72 182.334)" fill="#0A2540"/>
<circle cx="166.337" cy="178.729" r="0.912692" transform="rotate(14.3862 166.337 178.729)" fill="#0A2540"/>
<circle cx="203.672" cy="191.132" r="0.912692" transform="rotate(14.3862 203.672 191.132)" fill="#0A2540"/>
<circle cx="195.536" cy="186.444" r="0.912692" transform="rotate(14.3862 195.536 186.444)" fill="#0A2540"/>
<circle cx="195.49" cy="177.561" r="0.912692" transform="rotate(14.3862 195.49 177.561)" fill="#0A2540"/>
<g opacity="0.25">
<path d="M15.5789 95.9615C17.7387 101.584 19.0074 108.244 15.2435 110.076C11.4796 111.908 6.67745 108.835 4.51763 103.212C2.35781 97.5897 3.6582 91.5467 7.42212 89.7148C11.186 87.8829 13.419 90.339 15.5789 95.9615Z" fill="#6C38DD"/>
<path d="M57.8291 90.9355C56.2929 96.7731 53.2003 101.501 49.2615 100.117C45.3226 98.7334 43.3748 92.8792 44.911 87.0416C46.4471 81.204 50.8854 77.5936 54.8243 78.9775C58.7631 80.3614 59.3652 85.0979 57.8291 90.9355Z" fill="#6C38DD"/>
<path d="M72.8232 104.632C70.2435 108.91 65.5035 110.296 62.2363 107.727C58.969 105.159 60.3668 98.5595 62.9466 94.2817C65.5264 90.0039 68.3112 89.6675 71.5784 92.236C74.8457 94.8045 75.403 100.355 72.8232 104.632Z" fill="#6C38DD"/>
<path d="M66.8054 134.546C67.5258 151.835 49.5072 149.145 40.3457 140.433C30.9601 152.74 11.8539 156.117 11.1336 138.828C10.4132 121.539 23.6867 105.065 38.8457 104.433C54.0048 103.801 66.0851 117.257 66.8054 134.546Z" fill="#6C38DD"/>
<path d="M38.5779 89.4565C38.8623 96.2825 35.1244 101.982 30.2291 102.186C25.3338 102.39 23.1363 96.938 22.8519 90.1119C22.5675 83.2859 24.3039 77.6703 29.1992 77.4663C34.0945 77.2623 38.2935 82.6305 38.5779 89.4565Z" fill="#6C38DD"/>
</g>
<g opacity="0.25">
<path d="M370.338 186.492C366.719 191.305 361.747 195.915 358.197 193.696C354.647 191.478 354.704 185.777 358.324 180.963C361.943 176.149 367.756 174.045 371.305 176.263C374.855 178.482 373.958 181.678 370.338 186.492Z" fill="#6C38DD"/>
<path d="M397.017 219.637C391.254 221.433 385.605 221.32 384.688 217.247C383.771 213.174 387.7 208.417 393.463 206.621C399.226 204.826 404.642 206.673 405.559 210.746C406.475 214.819 402.78 217.842 397.017 219.637Z" fill="#6C38DD"/>
<path d="M393.362 239.614C388.367 239.697 384.678 236.415 385.122 232.282C385.565 228.15 391.901 225.833 396.895 225.75C401.89 225.667 403.653 227.849 403.209 231.982C402.766 236.114 398.357 239.531 393.362 239.614Z" fill="#6C38DD"/>
<path d="M364.814 250.385C350.541 260.169 343.261 243.469 345.785 231.081C330.373 229.655 317.373 215.252 331.645 205.468C345.918 195.684 366.925 198.194 375.503 210.708C384.082 223.222 379.086 240.602 364.814 250.385Z" fill="#6C38DD"/>
<path d="M388.056 202.535C382.421 206.398 375.607 206.253 372.837 202.212C370.066 198.171 373.521 193.415 379.156 189.553C384.791 185.69 390.472 184.182 393.243 188.223C396.013 192.264 393.691 198.672 388.056 202.535Z" fill="#6C38DD"/>
</g>
<defs>
<filter id="filter0_d_84_5372" x="69.5264" y="28.9224" width="255.339" height="225.402" filterUnits="userSpaceOnUse" color-interpolation-filters="sRGB">
<feFlood flood-opacity="0" result="BackgroundImageFix"/>
<feColorMatrix in="SourceAlpha" type="matrix" values="0 0 0 0 0 0 0 0 0 0 0 0 0 0 0 0 0 0 127 0" result="hardAlpha"/>
<feOffset/>
<feGaussianBlur stdDeviation="5.5"/>
<feComposite in2="hardAlpha" operator="out"/>
<feColorMatrix type="matrix" values="0 0 0 0 0.0392157 0 0 0 0 0.145098 0 0 0 0 0.25098 0 0 0 0.15 0"/>
<feBlend mode="normal" in2="BackgroundImageFix" result="effect1_dropShadow_84_5372"/>
<feBlend mode="normal" in="SourceGraphic" in2="effect1_dropShadow_84_5372" result="shape"/>
</filter>
</defs>
</svg>
