<svg width="16" height="16" viewBox="0 0 16 16" fill="none" xmlns="http://www.w3.org/2000/svg">
<path d="M13.3332 1.33337C13.8636 1.33337 14.3723 1.54409 14.7474 1.91916C15.1225 2.29423 15.3332 2.80294 15.3332 3.33337V4.66671H13.9998V12.6667C13.9998 13.1971 13.7891 13.7058 13.4141 14.0809C13.039 14.456 12.5303 14.6667 11.9998 14.6667H2.6665C2.13607 14.6667 1.62736 14.456 1.25229 14.0809C0.877218 13.7058 0.666504 13.1971 0.666504 12.6667V11.3334H11.3332V12.6667C11.3332 12.83 11.3931 12.9876 11.5016 13.1096C11.6102 13.2316 11.7597 13.3096 11.9218 13.3287L11.9998 13.3334C12.1631 13.3334 12.3207 13.2734 12.4428 13.1649C12.5648 13.0564 12.6427 12.9069 12.6618 12.7447L12.6665 12.6667V10H1.99984V3.33337C1.99984 2.80294 2.21055 2.29423 2.58562 1.91916C2.9607 1.54409 3.4694 1.33337 3.99984 1.33337H13.3332Z" fill="#6C38DD"/>
</svg>
