<svg width="16" height="16" viewBox="0 0 16 16" fill="none" xmlns="http://www.w3.org/2000/svg">
<path d="M1.3335 14.6666C1.3335 13.2521 1.8954 11.8956 2.89559 10.8954C3.89579 9.8952 5.25234 9.33329 6.66683 9.33329C8.08132 9.33329 9.43787 9.8952 10.4381 10.8954C11.4383 11.8956 12.0002 13.2521 12.0002 14.6666H1.3335ZM6.66683 8.66663C4.45683 8.66663 2.66683 6.87663 2.66683 4.66663C2.66683 2.45663 4.45683 0.666626 6.66683 0.666626C8.87683 0.666626 10.6668 2.45663 10.6668 4.66663C10.6668 6.87663 8.87683 8.66663 6.66683 8.66663ZM11.5755 10.1553C12.5953 10.4174 13.5063 10.9945 14.179 11.8045C14.8517 12.6145 15.2518 13.6161 15.3222 14.6666H13.3335C13.3335 12.9266 12.6668 11.3426 11.5755 10.1553ZM10.2268 8.63796C10.7855 8.13828 11.2323 7.52618 11.5379 6.84179C11.8435 6.1574 12.001 5.41615 12.0002 4.66663C12.0016 3.7556 11.7686 2.85954 11.3235 2.06463C12.0786 2.21635 12.7578 2.62487 13.2458 3.22076C13.7338 3.81664 14.0003 4.56311 14.0002 5.33329C14.0003 5.80827 13.899 6.2778 13.7029 6.71041C13.5068 7.14302 13.2205 7.52872 12.8632 7.84165C12.5059 8.15459 12.0858 8.38753 11.6311 8.52487C11.1764 8.66221 10.6976 8.70076 10.2268 8.63796Z" fill="#F8F5FF"/>
</svg>
