<svg width="16" height="16" viewBox="0 0 16 16" fill="none" xmlns="http://www.w3.org/2000/svg">
<path d="M10.6667 1.33337L14 4.66671V14.0054C13.9998 14.1808 13.93 14.349 13.8059 14.473C13.6817 14.5971 13.5135 14.6667 13.338 14.6667H2.662C2.48692 14.6655 2.31934 14.5954 2.19548 14.4717C2.07161 14.348 2.0014 14.1805 2 14.0054V1.99471C2 1.62937 2.29667 1.33337 2.662 1.33337H10.6667ZM8 7.66671C8.44203 7.66671 8.86595 7.49111 9.17851 7.17855C9.49107 6.86599 9.66667 6.44207 9.66667 6.00004C9.66667 5.55801 9.49107 5.13409 9.17851 4.82153C8.86595 4.50897 8.44203 4.33337 8 4.33337C7.55797 4.33337 7.13405 4.50897 6.82149 4.82153C6.50893 5.13409 6.33333 5.55801 6.33333 6.00004C6.33333 6.44207 6.50893 6.86599 6.82149 7.17855C7.13405 7.49111 7.55797 7.66671 8 7.66671ZM5.018 11.3334H10.982C10.9012 10.599 10.5522 9.92022 10.0019 9.42719C9.45168 8.93415 8.73883 8.66151 8 8.66151C7.26117 8.66151 6.54832 8.93415 5.99805 9.42719C5.44779 9.92022 5.09881 10.599 5.018 11.3334Z" fill="#6C38DD"/>
</svg>
