<svg width="32" height="32" viewBox="0 0 32 32" fill="none" xmlns="http://www.w3.org/2000/svg">
<path d="M15.9998 2.66666C23.3638 2.66666 29.3332 8.63599 29.3332 16C29.3332 23.364 23.3638 29.3333 15.9998 29.3333C8.63584 29.3333 2.6665 23.364 2.6665 16C2.6665 8.63599 8.63584 2.66666 15.9998 2.66666ZM15.9998 14.6667C13.3332 14.6667 11.1105 15.1107 9.33317 16C9.33317 17.7681 10.0355 19.4638 11.2858 20.714C12.536 21.9643 14.2317 22.6667 15.9998 22.6667C17.7679 22.6667 19.4636 21.9643 20.7139 20.714C21.9641 19.4638 22.6665 17.7681 22.6665 16C20.8892 15.1107 18.6665 14.6667 15.9998 14.6667ZM11.3332 9.33332C9.79717 9.33332 8.50384 10.3733 8.11717 11.7867L8.0665 12H14.5998C14.4461 11.2471 14.037 10.5704 13.4418 10.0845C12.8465 9.59851 12.1016 9.33317 11.3332 9.33332ZM20.6665 9.33332C19.1305 9.33332 17.8372 10.3733 17.4505 11.7867L17.3998 12H23.9332C23.7795 11.2471 23.3704 10.5704 22.7751 10.0845C22.1798 9.59851 21.4349 9.33317 20.6665 9.33332Z" fill="#F8F5FF"/>
</svg>
