<svg width="32" height="32" viewBox="0 0 32 32" fill="none" xmlns="http://www.w3.org/2000/svg">
<path d="M9.47342 11.72C9.70471 12.5664 10.2078 13.3134 10.9053 13.8458C11.6028 14.3783 12.4559 14.6667 13.3334 14.6666H18.6668C20.2375 14.6668 21.7577 15.2213 22.9595 16.2327C24.1613 17.244 24.9676 18.6471 25.2361 20.1946C26.141 20.4899 26.9111 21.0981 27.408 21.91C27.9048 22.7219 28.096 23.6843 27.9471 24.6245C27.7982 25.5646 27.3191 26.4209 26.5957 27.0396C25.8722 27.6583 24.952 27.9988 24.0001 28C23.0688 28.0007 22.1664 27.6764 21.4486 27.0831C20.7308 26.4898 20.2425 25.6646 20.0679 24.7498C19.8933 23.835 20.0434 22.888 20.4923 22.072C20.9411 21.2561 21.6607 20.6223 22.5268 20.28C22.2955 19.4335 21.7924 18.6866 21.0949 18.1541C20.3974 17.6217 19.5442 17.3333 18.6668 17.3333H13.3334C11.8906 17.3354 10.4864 16.8674 9.33342 16V20.2266C10.2234 20.5412 10.9735 21.1602 11.4512 21.9744C11.9289 22.7885 12.1034 23.7453 11.9438 24.6757C11.7843 25.606 11.3009 26.45 10.5793 27.0585C9.85757 27.6669 8.94403 28.0006 8.00009 28.0006C7.05615 28.0006 6.14261 27.6669 5.42093 27.0585C4.69925 26.45 4.21591 25.606 4.05634 24.6757C3.89678 23.7453 4.07126 22.7885 4.54894 21.9744C5.02663 21.1602 5.77677 20.5412 6.66676 20.2266V11.7733C5.78273 11.4612 5.03636 10.8486 4.55789 10.0423C4.07943 9.2361 3.89925 8.28746 4.0488 7.36195C4.19835 6.43644 4.66813 5.59283 5.37617 4.97832C6.0842 4.36382 6.98553 4.01744 7.92288 3.99962C8.86022 3.98181 9.77406 4.2937 10.5049 4.88087C11.2358 5.46803 11.7373 6.29319 11.9219 7.21235C12.1065 8.13151 11.9625 9.0863 11.515 9.91013C11.0675 10.734 10.345 11.3745 9.47342 11.72Z" fill="#F8F5FF"/>
<circle cx="8" cy="8" r="4" fill="#B696FC"/>
</svg>
