<svg width="32" height="32" viewBox="0 0 32 32" fill="none" xmlns="http://www.w3.org/2000/svg">
<circle cx="16" cy="16" r="15" fill="#F2EEFB"/>
<path d="M10.0078 9.06424C11.6712 7.62293 13.7991 6.83092 16.0001 6.83399C21.0628 6.83399 25.1667 10.9379 25.1667 16.0007C25.1667 17.9587 24.5526 19.7737 23.5076 21.2623L20.5834 16.0007H23.3334C23.3335 14.563 22.911 13.157 22.1185 11.9575C21.326 10.758 20.1983 9.81789 18.8758 9.25411C17.5533 8.69033 16.0942 8.52772 14.68 8.78651C13.2658 9.0453 11.9589 9.71407 10.9217 10.7097L10.0078 9.06424Z" fill="#9D73F9"/>
<path d="M21.9919 22.9364C20.3286 24.3777 18.2006 25.1697 15.9997 25.1666C10.9369 25.1666 6.83301 21.0627 6.83301 15.9999C6.83301 14.0419 7.44717 12.2269 8.49217 10.7383L11.4163 15.9999H8.66634C8.66622 17.4376 9.0887 18.8436 9.88123 20.0431C10.6738 21.2426 11.8014 22.1827 13.1239 22.7465C14.4465 23.3103 15.9055 23.4729 17.3197 23.2141C18.7339 22.9553 20.0408 22.2865 21.078 21.2909L21.9919 22.9364Z" fill="#B696FC"/>
</svg>
