<svg width="32" height="32" viewBox="0 0 32 32" fill="none" xmlns="http://www.w3.org/2000/svg">
<rect x="8" y="16" width="15" height="9" fill="#6C38DD"/>
<path d="M9.72119 27.7654L2.66652 29.3334L4.23452 22.2787C3.20189 20.3472 2.66322 18.1902 2.66652 16C2.66652 8.63602 8.63585 2.66669 15.9999 2.66669C23.3638 2.66669 29.3332 8.63602 29.3332 16C29.3332 23.364 23.3638 29.3334 15.9999 29.3334C13.8097 29.3366 11.6527 28.798 9.72119 27.7654ZM9.33319 16C9.33319 17.7681 10.0356 19.4638 11.2858 20.7141C12.536 21.9643 14.2317 22.6667 15.9999 22.6667C17.768 22.6667 19.4637 21.9643 20.7139 20.7141C21.9641 19.4638 22.6665 17.7681 22.6665 16H19.9999C19.9999 17.0609 19.5784 18.0783 18.8283 18.8284C18.0781 19.5786 17.0607 20 15.9999 20C14.939 20 13.9216 19.5786 13.1714 18.8284C12.4213 18.0783 11.9999 17.0609 11.9999 16H9.33319Z" fill="#F8F5FF"/>
</svg>
