<svg width="32" height="32" viewBox="0 0 32 32" fill="none" xmlns="http://www.w3.org/2000/svg">
<rect x="3" y="3" width="26" height="26" rx="13" fill="#EAE1FE"/>
<path d="M16.8986 17.4052H11.125V15.7112H16.8555C17.3183 15.7112 17.6985 15.6353 17.9963 15.4835C18.2976 15.3316 18.52 15.1206 18.6635 14.8503C18.8106 14.58 18.8823 14.2634 18.8787 13.9005C18.8823 13.545 18.8106 13.2266 18.6635 12.9452C18.52 12.6601 18.3012 12.4361 18.007 12.2731C17.7165 12.1065 17.347 12.0232 16.8986 12.0232H14.7355V21.6875H12.7446V10.3125H16.8986C17.7523 10.3125 18.4752 10.4717 19.0671 10.7902C19.6589 11.1049 20.1073 11.5326 20.4123 12.0732C20.7207 12.6101 20.875 13.2136 20.875 13.8839C20.875 14.58 20.719 15.1928 20.4069 15.7223C20.0948 16.2481 19.6428 16.6609 19.0509 16.9609C18.459 17.2571 17.7416 17.4052 16.8986 17.4052ZM17.1515 18.2495V19.9435H11.125V18.2495H17.1515Z" fill="#6B3AD6"/>
</svg>
