<svg width="32" height="32" viewBox="0 0 32 32" fill="none" xmlns="http://www.w3.org/2000/svg">
<path d="M17.3333 28V31.3333L13.3333 28.6667L9.33333 31.3333V28H8.66667C7.42899 28 6.24201 27.5083 5.36684 26.6332C4.49167 25.758 4 24.571 4 23.3333V6.66666C4 5.60579 4.42143 4.58837 5.17157 3.83823C5.92172 3.08808 6.93913 2.66666 8 2.66666H26.6667C27.0203 2.66666 27.3594 2.80713 27.6095 3.05718C27.8595 3.30723 28 3.64637 28 3.99999V26.6667C28 27.0203 27.8595 27.3594 27.6095 27.6095C27.3594 27.8595 27.0203 28 26.6667 28H17.3333ZM9.33333 25.3333V22.6667H17.3333V25.3333H25.3333V21.3333H8.66667C8.13623 21.3333 7.62753 21.544 7.25245 21.9191C6.87738 22.2942 6.66667 22.8029 6.66667 23.3333C6.66667 23.8638 6.87738 24.3725 7.25245 24.7475C7.62753 25.1226 8.13623 25.3333 8.66667 25.3333H9.33333ZM9.33333 6.66666V9.33332H12V6.66666H9.33333ZM9.33333 10.6667V13.3333H12V10.6667H9.33333ZM9.33333 14.6667V17.3333H12V14.6667H9.33333Z" fill="#F8F5FF"/>
</svg>
