<svg width="61" height="63" viewBox="0 0 61 63" fill="none" xmlns="http://www.w3.org/2000/svg">
<g opacity="0.25">
<path d="M47.5954 25.1845C44.5293 24.7686 41.3144 23.6031 41.7597 21.1363C42.2051 18.6695 45.0517 17.0069 48.1178 17.4228C51.1839 17.8387 53.3084 20.1756 52.8631 22.6424C52.4177 25.1092 50.6615 25.6005 47.5954 25.1845Z" fill="url(#paint0_linear_84_5728)"/>
<path d="M36.0529 48.6102C34.0912 46.2065 33.0998 43.2951 34.9559 41.6195C36.812 39.9438 39.907 40.534 41.8688 42.9377C43.8306 45.3414 43.9162 48.6483 42.0601 50.3239C40.204 51.9996 38.0147 51.0139 36.0529 48.6102Z" fill="url(#paint1_linear_84_5728)"/>
<path d="M23.3058 50.9208C22.3383 48.4007 23.2871 45.5471 25.425 44.5471C27.5628 43.547 29.89 46.0873 30.8574 48.6074C31.8249 51.1274 31.0663 52.6729 28.9284 53.6729C26.7906 54.673 24.2732 53.4408 23.3058 50.9208Z" fill="url(#paint2_linear_84_5728)"/>
<path d="M11.3259 39.3151C1.89618 33.8326 9.23468 25.3898 16.8714 23.5849C13.4042 14.5435 17.8732 3.48104 27.3029 8.96358C36.7326 14.4461 41.1409 26.9174 36.5065 35.001C31.872 43.0846 20.7556 44.7976 11.3259 39.3151Z" fill="url(#paint3_linear_84_5728)"/>
<path d="M42.899 38.9707C39.9323 37.2459 38.926 33.4081 40.6513 30.3988C42.3766 27.3895 45.4747 27.5787 48.4414 29.3035C51.408 31.0284 53.1198 33.6358 51.3945 36.6451C49.6692 39.6543 45.8657 40.6956 42.899 38.9707Z" fill="url(#paint4_linear_84_5728)"/>
</g>
<defs>
<linearGradient id="paint0_linear_84_5728" x1="54.2486" y1="26.0871" x2="52.8892" y2="14.9086" gradientUnits="userSpaceOnUse">
<stop stop-color="#8452EF"/>
<stop offset="1" stop-color="#6628EC"/>
</linearGradient>
<linearGradient id="paint1_linear_84_5728" x1="40.6603" y1="54.2554" x2="47.5703" y2="44.4573" gradientUnits="userSpaceOnUse">
<stop stop-color="#8452EF"/>
<stop offset="1" stop-color="#6628EC"/>
</linearGradient>
<linearGradient id="paint2_linear_84_5728" x1="25.6758" y1="57.0941" x2="34.8014" y2="49.8415" gradientUnits="userSpaceOnUse">
<stop stop-color="#8452EF"/>
<stop offset="1" stop-color="#6628EC"/>
</linearGradient>
<linearGradient id="paint3_linear_84_5728" x1="32.7391" y1="51.765" x2="37.3799" y2="4.5756" gradientUnits="userSpaceOnUse">
<stop stop-color="#8452EF"/>
<stop offset="1" stop-color="#6628EC"/>
</linearGradient>
<linearGradient id="paint4_linear_84_5728" x1="50.1665" y1="43.1961" x2="53.2867" y2="27.4806" gradientUnits="userSpaceOnUse">
<stop stop-color="#8452EF"/>
<stop offset="1" stop-color="#6628EC"/>
</linearGradient>
</defs>
</svg>
