<svg width="91" height="92" viewBox="0 0 91 92" fill="none" xmlns="http://www.w3.org/2000/svg">
<g opacity="0.25">
<path d="M18.526 32.2081C21.6322 37.6689 24.0365 44.3488 20.6308 46.8609C17.225 49.373 11.946 46.9826 8.83976 41.5218C5.73347 36.0609 5.9762 29.5976 9.38191 27.0855C12.7876 24.5733 15.4197 26.7472 18.526 32.2081Z" fill="url(#paint0_linear_84_5716)"/>
<path d="M59.4346 20.0789C58.9232 26.3685 56.6812 31.7661 52.5475 30.981C48.4137 30.1959 45.4772 24.4607 45.9886 18.171C46.5 11.8814 50.2656 7.41905 54.3993 8.20415C58.533 8.98926 59.9459 13.7892 59.4346 20.0789Z" fill="url(#paint1_linear_84_5716)"/>
<path d="M76.6251 31.784C74.8126 36.6314 70.3649 38.842 66.6909 36.7216C63.0169 34.6012 63.26 27.5468 65.0725 22.6994C66.8849 17.852 69.5805 17.0473 73.2545 19.1677C76.9285 21.2881 78.4376 26.9366 76.6251 31.784Z" fill="url(#paint2_linear_84_5716)"/>
<path d="M75.838 63.709C79.5344 81.4713 61.2533 81.6452 50.6906 74.1379C43.5344 88.4063 25.225 95.033 21.5286 77.2707C17.8322 59.5084 28.1135 40.2926 42.9937 37.1523C57.8739 34.0119 72.1415 45.9467 75.838 63.709Z" fill="url(#paint3_linear_84_5716)"/>
<path d="M40.1431 21.7071C41.6025 28.7201 38.8904 35.2273 34.0853 36.2414C29.2802 37.2555 26.1664 31.9778 24.707 24.9648C23.2476 17.9519 23.9951 11.8593 28.8002 10.8452C33.6053 9.83111 38.6837 14.6942 40.1431 21.7071Z" fill="url(#paint4_linear_84_5716)"/>
</g>
<defs>
<linearGradient id="paint0_linear_84_5716" x1="11.7856" y1="20.3585" x2="-2.85728" y2="33.6763" gradientUnits="userSpaceOnUse">
<stop stop-color="#8452EF"/>
<stop offset="1" stop-color="#6628EC"/>
</linearGradient>
<linearGradient id="paint1_linear_84_5716" x1="60.6356" y1="5.30708" x2="41.2134" y2="7.97707" gradientUnits="userSpaceOnUse">
<stop stop-color="#8452EF"/>
<stop offset="1" stop-color="#6628EC"/>
</linearGradient>
<linearGradient id="paint2_linear_84_5716" x1="81.0652" y1="19.9093" x2="61.5851" y2="18.1151" gradientUnits="userSpaceOnUse">
<stop stop-color="#8452EF"/>
<stop offset="1" stop-color="#6628EC"/>
</linearGradient>
<linearGradient id="paint3_linear_84_5716" x1="67.444" y1="23.3739" x2="4.60984" y2="68.815" gradientUnits="userSpaceOnUse">
<stop stop-color="#8452EF"/>
<stop offset="1" stop-color="#6628EC"/>
</linearGradient>
<linearGradient id="paint4_linear_84_5716" x1="36.5679" y1="4.52737" x2="15.3998" y2="14.3277" gradientUnits="userSpaceOnUse">
<stop stop-color="#8452EF"/>
<stop offset="1" stop-color="#6628EC"/>
</linearGradient>
</defs>
</svg>
