<svg width="61" height="63" viewBox="0 0 61 63" fill="none" xmlns="http://www.w3.org/2000/svg">
<g opacity="0.25">
<path d="M47.861 25.6753C44.7778 25.26 41.5451 24.0961 41.9929 21.6328C42.4407 19.1696 45.3031 17.5094 48.3862 17.9248C51.4694 18.3401 53.6057 20.6736 53.1579 23.1368C52.7101 25.6001 50.9441 26.0906 47.861 25.6753Z" fill="white"/>
<path d="M36.2548 49.067C34.2822 46.6669 33.2853 43.7596 35.1517 42.0864C37.0181 40.4132 40.1303 41.0025 42.103 43.4027C44.0756 45.8029 44.1618 49.1051 42.2953 50.7783C40.4289 52.4515 38.2275 51.4672 36.2548 49.067Z" fill="white"/>
<path d="M23.4365 51.3742C22.4637 48.8578 23.4177 46.0083 25.5674 45.0097C27.7172 44.0111 30.0573 46.5478 31.0301 49.0641C32.0029 51.5805 31.2401 53.1237 29.0904 54.1224C26.9406 55.121 24.4093 53.8906 23.4365 51.3742Z" fill="white"/>
<path d="M11.3896 39.7853C1.90752 34.3107 9.28677 25.8802 16.9659 24.0779C13.4794 15.0495 17.9733 4.00309 27.4554 9.47769C36.9374 14.9523 41.3702 27.4056 36.71 35.4775C32.0498 43.5493 20.8716 45.26 11.3896 39.7853Z" fill="white"/>
<path d="M43.1387 39.4415C40.1556 37.7191 39.1436 33.8869 40.8785 30.882C42.6133 27.8771 45.7287 28.0659 48.7118 29.7883C51.695 31.5106 53.4162 34.1142 51.6814 37.1192C49.9465 40.1241 46.1218 41.1639 43.1387 39.4415Z" fill="white"/>
</g>
</svg>
