<svg width="113" height="107" viewBox="0 0 113 107" fill="none" xmlns="http://www.w3.org/2000/svg">
<g opacity="0.25">
<path d="M69.9765 82.8041C70.9351 76.7665 73.313 70.3943 77.9299 71.1274C82.5469 71.8604 85.5126 77.3491 84.554 83.3867C83.5954 89.4243 79.0756 93.7245 74.4587 92.9915C69.8417 92.2584 69.018 88.8417 69.9765 82.8041Z" fill="white"/>
<path d="M26.5512 61.4994C31.1872 57.5147 36.7232 55.4044 39.7703 58.9497C42.8174 62.4951 41.5293 68.5994 36.8933 72.5841C32.2573 76.5688 26.0289 76.925 22.9818 73.3796C19.9347 69.8343 21.9152 65.4841 26.5512 61.4994Z" fill="white"/>
<path d="M19.5089 40.9101C24.3069 38.8691 29.6229 40.5676 31.3824 44.704C33.1419 48.8403 28.2277 53.5496 23.4297 55.5907C18.6316 57.6317 15.7667 56.2317 14.0072 52.0954C12.2476 47.959 14.7109 42.9512 19.5089 40.9101Z" fill="white"/>
<path d="M41.4773 19.3709C50.1292 4.38507 66.0358 17.539 70.1534 30.4083C85.8495 25.7226 106.084 34.4281 97.4317 49.4139C88.7798 64.3997 67.0852 70.2427 52.138 61.6127C37.1907 52.9827 32.8255 34.3567 41.4773 19.3709Z" fill="white"/>
<path d="M44.3009 74.3782C47.7171 68.4612 54.3994 65.9237 59.2265 68.7107C64.0535 71.4976 63.2237 77.4141 59.8075 83.3312C56.3914 89.2483 51.6826 92.9252 46.8556 90.1382C42.0285 87.3513 40.8848 80.2953 44.3009 74.3782Z" fill="white"/>
</g>
</svg>
