<svg width="135" height="132" viewBox="0 0 135 132" fill="none" xmlns="http://www.w3.org/2000/svg">
<g opacity="0.25">
<path d="M54.5019 27.9002C53.5601 34.5287 51.0051 41.4676 45.7112 40.4655C40.4173 39.4635 36.8892 33.2777 37.8309 26.6492C38.7727 20.0206 43.8277 15.4595 49.1216 16.4615C54.4155 17.4636 55.4436 21.2716 54.5019 27.9002Z" fill="white"/>
<path d="M104.662 53.2421C99.4659 57.4501 93.1941 59.5501 89.6223 55.5072C86.0505 51.4643 87.367 44.7757 92.5628 40.5677C97.7587 36.3598 104.866 36.226 108.438 40.2689C112.01 44.3118 109.858 49.0342 104.662 53.2421Z" fill="white"/>
<path d="M109.427 80.8649C103.996 82.9193 97.8793 80.8216 95.7636 76.1795C93.648 71.5374 99.1432 66.5407 104.573 64.4863C110.004 62.4319 113.313 64.0976 115.429 68.7397C117.544 73.3818 114.857 78.8105 109.427 80.8649Z" fill="white"/>
<path d="M84.2998 106.61C72.3708 126.931 54.343 110.919 50.584 94.3648C31.1006 101.728 7.39841 91.8843 19.3274 71.5629C31.2564 51.2416 58.1249 41.8956 75.4232 52.0505C92.7214 62.2054 96.2287 86.2887 84.2998 106.61Z" fill="white"/>
<path d="M84.0533 38.2763C80.3005 44.6694 72.0381 46.7875 65.5987 43.0072C59.1593 39.227 59.6142 32.5255 63.367 26.1325C67.1198 19.7394 72.7495 16.0757 79.1889 19.856C85.6283 23.6362 87.8062 31.8833 84.0533 38.2763Z" fill="white"/>
</g>
</svg>
