<svg width="93" height="95" viewBox="0 0 93 95" fill="none" xmlns="http://www.w3.org/2000/svg">
<g opacity="0.25">
<path d="M21.7035 64.4226C27.7246 64.2656 34.4256 65.2951 34.8946 69.4548C35.3635 73.6145 30.8626 77.1138 24.8416 77.2708C18.8205 77.4278 13.5593 74.183 13.0904 70.0233C12.6214 65.8636 15.6824 64.5796 21.7035 64.4226Z" fill="white"/>
<path d="M31.084 22.9213C36.0728 26.3197 39.4958 30.8144 36.8753 34.0644C34.2549 37.3145 28.0863 37.1942 23.0975 33.7958C18.1087 30.3974 16.1888 25.0078 18.8093 21.7578C21.4297 18.5078 26.0952 19.5229 31.084 22.9213Z" fill="white"/>
<path d="M49.0033 13.3657C52.1732 17.2266 51.8955 22.1571 48.3829 24.3783C44.8703 26.5996 39.1173 23.077 35.9474 19.2162C32.7775 15.3553 33.3909 12.6182 36.9035 10.3969C40.4161 8.17569 45.8334 9.50485 49.0033 13.3657Z" fill="white"/>
<path d="M75.1869 29.0325C91.7227 34.1302 83.1667 50.2144 71.8941 55.9384C80.3581 68.8969 77.1567 88.0332 60.6209 82.9354C44.0851 77.8376 32.9927 59.8223 37.4623 45.3234C41.932 30.8245 58.6512 23.9347 75.1869 29.0325Z" fill="white"/>
<path d="M23.257 40.5719C29.7857 42.5847 33.9082 48.0119 32.4648 52.6941C31.0214 57.3762 25.1489 57.6258 18.6202 55.6131C12.0914 53.6004 7.37878 50.0874 8.82215 45.4053C10.2655 40.7232 16.7282 38.5592 23.257 40.5719Z" fill="white"/>
</g>
</svg>
