<svg width="93" height="92" viewBox="0 0 93 92" fill="none" xmlns="http://www.w3.org/2000/svg">
<g opacity="0.25">
<path d="M19.5177 32.3416C22.6412 37.7946 25.0588 44.4648 21.6342 46.9733C18.2096 49.4818 12.9013 47.0948 9.77773 41.6419C6.65419 36.1889 6.89827 29.7349 10.3229 27.2264C13.7475 24.718 16.3942 26.8887 19.5177 32.3416Z" fill="white"/>
<path d="M60.654 20.2301C60.1398 26.5107 57.8853 31.9004 53.7286 31.1165C49.572 30.3325 46.6192 24.6056 47.1334 18.325C47.6476 12.0445 51.4341 7.5886 55.5908 8.37257C59.7475 9.15654 61.1682 13.9496 60.654 20.2301Z" fill="white"/>
<path d="M77.9403 31.9182C76.1177 36.7586 71.6453 38.966 67.9509 36.8487C64.2565 34.7313 64.5009 27.6871 66.3235 22.8467C68.1461 18.0064 70.8566 17.2028 74.551 19.3202C78.2454 21.4375 79.7629 27.0779 77.9403 31.9182Z" fill="white"/>
<path d="M77.1482 63.7971C80.8651 81.5337 62.4825 81.7073 51.8611 74.2109C44.6652 88.4586 26.2542 95.0757 22.5373 77.3391C18.8203 59.6026 29.1587 40.4145 44.1215 37.2787C59.0843 34.1429 73.4312 46.0605 77.1482 63.7971Z" fill="white"/>
<path d="M41.2552 21.856C42.7227 28.8588 39.9955 35.3566 35.1638 36.3692C30.332 37.3819 27.2009 32.1118 25.7334 25.109C24.2658 18.1062 25.0176 12.0224 29.8493 11.0098C34.6811 9.99717 39.7877 14.8532 41.2552 21.856Z" fill="white"/>
</g>
</svg>
