<svg width="201" height="195" viewBox="0 0 201 195" fill="none" xmlns="http://www.w3.org/2000/svg">
<g filter="url(#filter0_d_84_5685)">
<path fill-rule="evenodd" clip-rule="evenodd" d="M92.9334 48.9978C99.8826 48.3672 107.528 49.9733 114.241 52.1156C120.791 54.2061 126.464 56.9362 129.703 59.2128C135.597 57.2842 145.666 56.086 154.792 56.5142C159.495 56.7349 164.373 57.5377 167.884 58.6881C171.317 59.813 173.807 61.5317 174.626 64.2439C175.455 66.9896 175.33 70.68 174.358 74.5195C173.377 78.3925 171.531 82.4452 169.52 86.6514C165.617 94.8124 160.402 102.817 156.264 107.285C156.623 109.553 156.476 113.092 156.04 117.008C155.566 121.273 154.632 126.248 153.244 131.254C151.857 136.257 149.99 141.431 147.658 145.83C145.332 150.218 142.476 153.841 139.086 156.267C132.468 161.006 123.092 164.119 111.865 164.916C100.621 165.715 87.6223 164.157 75.2683 159.446C62.9524 154.75 51.9963 148.091 44.1918 140.23C36.3925 132.374 31.4411 123.338 31.3737 113.866C31.3202 106.352 34.3187 98.0453 37.6444 90.7175C40.8891 83.5679 44.6263 77.1393 47.3176 73.4112C46.8787 66.7045 46.9548 56.7749 47.7019 47.838C48.082 43.291 48.794 38.8997 49.7941 35.4837C50.2942 33.7754 50.5171 32.3834 51.2458 31.1484C51.9713 29.9188 53.1303 28.9133 54.2346 28.3291C55.3402 27.7443 56.7794 27.4228 58.1672 27.5345C59.5586 27.6465 60.879 28.1388 62.4944 28.72C65.7241 29.8821 69.3769 31.9694 73.1025 34.3107C80.3971 38.8947 88.0301 44.7099 92.9334 48.9978Z" fill="#FBFAFF"/>
<path fill-rule="evenodd" clip-rule="evenodd" d="M97.5473 103.361C101.026 104.232 104.304 103.124 104.979 101.739C106.181 99.2686 103.115 97.4662 99.2951 96.0965C95.4752 94.7269 91.8607 94.0907 91.1455 96.7787C90.6423 98.67 92.327 101.112 95.4215 102.586C94.5798 105.964 91.8216 107.625 89.7165 108.289C86.0903 108.057 81.9887 108.826 80.6069 111.495C78.6227 115.329 69.5972 145.506 79.9026 149.201C91.2882 153.283 101.03 124.842 102.038 120.348C102.765 117.108 100.419 113.63 97.6664 111.338C95.9706 108.772 96.7574 105.207 97.5473 103.361Z" fill="#1C0352"/>
<path fill-rule="evenodd" clip-rule="evenodd" d="M68.8045 84.3761C65.1021 83.9322 61.3341 85.4678 58.9987 87.0985C58.02 87.7819 56.6765 87.5369 55.9979 86.5513C55.3193 85.5657 55.5626 84.2127 56.5413 83.5292C59.4247 81.5159 64.2369 79.4545 69.3143 80.0632C74.6164 80.6988 79.6957 84.1806 82.9458 92.2583C83.3931 93.3699 82.8608 94.6362 81.7571 95.0866C80.6533 95.537 79.3959 95.001 78.9487 93.8894C76.182 87.0132 72.2821 84.793 68.8045 84.3761Z" fill="#1C0352"/>
<path fill-rule="evenodd" clip-rule="evenodd" d="M128.086 103.818C124.383 103.374 120.615 104.91 118.28 106.541C117.301 107.224 115.958 106.979 115.279 105.993C114.601 105.008 114.844 103.655 115.823 102.971C118.706 100.958 123.518 98.8966 128.596 99.5053C133.898 100.141 138.977 103.623 142.227 111.7C142.674 112.812 142.142 114.078 141.038 114.529C139.935 114.979 138.677 114.443 138.23 113.332C135.463 106.455 131.563 104.235 128.086 103.818Z" fill="#1C0352"/>
<path d="M77.7823 53.1208C70.541 54.219 60.4218 61.615 56.2673 65.1757C54.8597 57.2188 54.4007 40.6969 58.3883 38.6235C63.2787 36.0806 73.4322 47.3946 77.7823 53.1208Z" fill="#6C38DD"/>
<path d="M83.2071 128.282C81.7928 128.08 80.2756 128.789 79.1121 129.591C78.0221 130.342 77.4588 131.615 77.3507 132.94C76.9061 138.391 76.9699 146.614 80.975 147.697C85.0921 148.81 90.5156 141.862 93.1803 137.181C93.6895 136.286 93.9401 135.245 93.6729 134.249C93.3398 133.008 92.6308 131.597 91.2837 131.045C89.2933 130.23 87.2699 131.549 86.507 132.31C86.3325 131.099 85.4284 128.599 83.2071 128.282Z" fill="#F52525"/>
<path d="M141.442 68.6006C146.731 73.7015 150.766 85.6195 152.123 90.9409C157.828 85.2556 167.66 72.0204 165.588 68.0113C163.048 63.0945 148.275 66.4463 141.442 68.6006Z" fill="#6C38DD"/>
<path fill-rule="evenodd" clip-rule="evenodd" d="M159.924 140.776C152.501 133.395 144.359 132.861 141.341 133.461C140.952 133.538 140.574 133.283 140.497 132.891C140.42 132.499 140.673 132.118 141.063 132.041C144.53 131.351 153.159 132.015 160.934 139.746C161.216 140.026 161.219 140.485 160.94 140.769C160.661 141.054 160.206 141.057 159.924 140.776Z" fill="#1C0352"/>
<path fill-rule="evenodd" clip-rule="evenodd" d="M169.592 131.915C158.449 123.902 147.77 124.901 143.938 126.327C143.566 126.465 143.152 126.273 143.015 125.898C142.877 125.523 143.067 125.107 143.44 124.969C147.702 123.383 158.883 122.435 170.428 130.736C170.751 130.969 170.826 131.421 170.595 131.746C170.364 132.071 169.915 132.147 169.592 131.915Z" fill="#1C0352"/>
<path fill-rule="evenodd" clip-rule="evenodd" d="M17.9504 88.126C31.5784 86.7973 40.3314 93.0385 42.9422 96.203C43.1959 96.5105 43.6491 96.5527 43.9544 96.2972C44.2598 96.0417 44.3016 95.5853 44.048 95.2778C41.1444 91.7584 31.9316 85.3083 17.8119 86.685C17.4168 86.7235 17.1275 87.0773 17.1657 87.4752C17.204 87.8732 17.5553 88.1645 17.9504 88.126Z" fill="#1C0352"/>
<path fill-rule="evenodd" clip-rule="evenodd" d="M21.4632 100.257C31.5563 97.6016 38.8724 101.238 41.1882 103.278C41.487 103.541 41.9411 103.51 42.2024 103.209C42.4638 102.908 42.4334 102.451 42.1345 102.188C39.4739 99.8447 31.671 96.0751 21.0999 98.8558C20.7158 98.9568 20.4857 99.3523 20.586 99.7391C20.6864 100.126 21.0791 100.358 21.4632 100.257Z" fill="#1C0352"/>
</g>
<defs>
<filter id="filter0_d_84_5685" x="6.16211" y="16.5126" width="180.013" height="159.603" filterUnits="userSpaceOnUse" color-interpolation-filters="sRGB">
<feFlood flood-opacity="0" result="BackgroundImageFix"/>
<feColorMatrix in="SourceAlpha" type="matrix" values="0 0 0 0 0 0 0 0 0 0 0 0 0 0 0 0 0 0 127 0" result="hardAlpha"/>
<feOffset/>
<feGaussianBlur stdDeviation="5.5"/>
<feComposite in2="hardAlpha" operator="out"/>
<feColorMatrix type="matrix" values="0 0 0 0 0.0392157 0 0 0 0 0.145098 0 0 0 0 0.25098 0 0 0 0.15 0"/>
<feBlend mode="normal" in2="BackgroundImageFix" result="effect1_dropShadow_84_5685"/>
<feBlend mode="normal" in="SourceGraphic" in2="effect1_dropShadow_84_5685" result="shape"/>
</filter>
</defs>
</svg>
