<svg width="67" height="64" viewBox="0 0 67 64" fill="none" xmlns="http://www.w3.org/2000/svg">
<g opacity="0.25">
<path d="M14.8756 30.9516C17.6745 33.2199 20.2259 36.3111 18.4914 38.4515C16.7568 40.5919 13.0817 40.4882 10.2827 38.22C7.48382 35.9517 6.621 32.3778 8.35557 30.2374C10.0902 28.097 12.0767 28.6834 14.8756 30.9516Z" fill="white"/>
<path d="M38.5442 15.0662C39.2118 18.6065 38.6576 22.0537 35.9503 22.5642C33.2431 23.0747 30.5072 20.6186 29.8396 17.0783C29.172 13.538 30.8255 10.2542 33.5328 9.74371C36.24 9.23322 37.8766 11.5259 38.5442 15.0662Z" fill="white"/>
<path d="M51.1275 17.5385C50.7554 20.5888 48.3221 22.8014 45.6926 22.4806C43.0631 22.1598 42.1077 18.2641 42.4798 15.2138C42.852 12.1635 44.4107 11.1138 47.0402 11.4346C49.6696 11.7554 51.4996 14.4882 51.1275 17.5385Z" fill="white"/>
<path d="M55.6471 35.098C60.7461 43.9299 49.3456 48.1724 41.5642 46.4817C39.3306 55.8736 28.9254 63.6357 23.8264 54.8039C18.7275 45.9721 22.138 33.1775 30.9469 28.0915C39.7558 23.0056 50.5482 26.2662 55.6471 35.098Z" fill="white"/>
<path d="M26.7417 20.3299C28.7549 23.8169 28.0809 27.9752 25.2362 29.6176C22.3915 31.2601 19.6165 29.0932 17.6033 25.6061C15.59 22.119 15.101 18.6322 17.9457 16.9898C20.7904 15.3474 24.7285 16.8428 26.7417 20.3299Z" fill="white"/>
</g>
</svg>
