<svg width="18" height="18" viewBox="0 0 18 18" fill="none" xmlns="http://www.w3.org/2000/svg">
<path d="M9.00027 6.86694C8.43448 6.86694 7.89185 7.0917 7.49178 7.49178C7.0917 7.89185 6.86694 8.43448 6.86694 9.00027C6.86694 9.56607 7.0917 10.1087 7.49178 10.5088C7.89185 10.9088 8.43448 11.1336 9.00027 11.1336C9.56607 11.1336 10.1087 10.9088 10.5088 10.5088C10.9088 10.1087 11.1336 9.56607 11.1336 9.00027C11.1336 8.43448 10.9088 7.89185 10.5088 7.49178C10.1087 7.0917 9.56607 6.86694 9.00027 6.86694ZM9.00027 5.44472C9.94326 5.44472 10.8476 5.81932 11.5144 6.48611C12.1812 7.15291 12.5558 8.05728 12.5558 9.00027C12.5558 9.94326 12.1812 10.8476 11.5144 11.5144C10.8476 12.1812 9.94326 12.5558 9.00027 12.5558C8.05728 12.5558 7.15291 12.1812 6.48611 11.5144C5.81932 10.8476 5.44472 9.94326 5.44472 9.00027C5.44472 8.05728 5.81932 7.15291 6.48611 6.48611C7.15291 5.81932 8.05728 5.44472 9.00027 5.44472V5.44472ZM13.6225 5.26694C13.6225 5.50269 13.5288 5.72878 13.3621 5.89548C13.1954 6.06218 12.9694 6.15583 12.7336 6.15583C12.4979 6.15583 12.2718 6.06218 12.1051 5.89548C11.9384 5.72878 11.8447 5.50269 11.8447 5.26694C11.8447 5.03119 11.9384 4.8051 12.1051 4.6384C12.2718 4.4717 12.4979 4.37805 12.7336 4.37805C12.9694 4.37805 13.1954 4.4717 13.3621 4.6384C13.5288 4.8051 13.6225 5.03119 13.6225 5.26694V5.26694ZM9.00027 3.31138C7.24098 3.31138 6.95369 3.31636 6.1352 3.35263C5.57769 3.37894 5.20365 3.4536 4.85663 3.58872C4.548 3.70818 4.32543 3.85112 4.08863 4.08863C3.86605 4.30367 3.69492 4.5662 3.588 4.85663C3.45289 5.20507 3.37823 5.5784 3.35263 6.1352C3.31565 6.92027 3.31138 7.19476 3.31138 9.00027C3.31138 10.7596 3.31636 11.0468 3.35263 11.8653C3.37894 12.4221 3.4536 12.7969 3.588 13.1432C3.70889 13.4525 3.85112 13.6751 4.0872 13.9112C4.32685 14.1501 4.54943 14.2931 4.8552 14.4111C5.20649 14.5469 5.58054 14.6223 6.1352 14.6479C6.92027 14.6849 7.19476 14.6892 9.00027 14.6892C10.7596 14.6892 11.0468 14.6842 11.8653 14.6479C12.4214 14.6216 12.7962 14.5469 13.1432 14.4125C13.4511 14.2924 13.6751 14.1494 13.9112 13.9133C14.1508 13.6737 14.2938 13.4511 14.4118 13.1453C14.5469 12.7948 14.6223 12.42 14.6479 11.8653C14.6849 11.0803 14.6892 10.8058 14.6892 9.00027C14.6892 7.24098 14.6842 6.95369 14.6479 6.1352C14.6216 5.57912 14.5469 5.20365 14.4118 4.85663C14.3047 4.56649 14.1338 4.30407 13.9119 4.08863C13.697 3.86594 13.4344 3.69479 13.1439 3.588C12.7955 3.45289 12.4214 3.37823 11.8653 3.35263C11.0803 3.31565 10.8058 3.31138 9.00027 3.31138ZM9.00027 1.88916C10.9324 1.88916 11.1734 1.89627 11.9315 1.93183C12.6888 1.96738 13.2044 2.08614 13.658 2.26249C14.1274 2.44312 14.5228 2.68774 14.9181 3.0824C15.2797 3.43789 15.5595 3.86789 15.738 4.34249C15.9137 4.79547 16.0332 5.31174 16.0687 6.06907C16.1021 6.82712 16.1114 7.06818 16.1114 9.00027C16.1114 10.9324 16.1043 11.1734 16.0687 11.9315C16.0332 12.6888 15.9137 13.2044 15.738 13.658C15.56 14.1329 15.2802 14.563 14.9181 14.9181C14.5626 15.2796 14.1326 15.5594 13.658 15.738C13.2051 15.9137 12.6888 16.0332 11.9315 16.0687C11.1734 16.1021 10.9324 16.1114 9.00027 16.1114C7.06818 16.1114 6.82712 16.1043 6.06907 16.0687C5.31174 16.0332 4.79618 15.9137 4.34249 15.738C3.8677 15.5599 3.43762 15.2801 3.0824 14.9181C2.72074 14.5627 2.44093 14.1327 2.26249 13.658C2.08614 13.2051 1.96738 12.6888 1.93183 11.9315C1.8984 11.1734 1.88916 10.9324 1.88916 9.00027C1.88916 7.06818 1.89627 6.82712 1.93183 6.06907C1.96738 5.31103 2.08614 4.79618 2.26249 4.34249C2.44044 3.8676 2.72031 3.43748 3.0824 3.0824C3.43773 2.72061 3.86778 2.44079 4.34249 2.26249C4.79618 2.08614 5.31103 1.96738 6.06907 1.93183C6.82712 1.8984 7.06818 1.88916 9.00027 1.88916Z" fill="#6C38DD"/>
</svg>
