<svg width="24" height="25" viewBox="0 0 24 25" fill="none" xmlns="http://www.w3.org/2000/svg">
<path d="M19.376 12.9161L8.777 19.9821C8.70171 20.0322 8.61423 20.0609 8.52389 20.0652C8.43355 20.0696 8.34373 20.0493 8.264 20.0066C8.18427 19.9639 8.1176 19.9004 8.07111 19.8228C8.02462 19.7452 8.00005 19.6565 8 19.5661V5.43407C8.00005 5.34363 8.02462 5.25489 8.07111 5.17731C8.1176 5.09973 8.18427 5.03622 8.264 4.99353C8.34373 4.95084 8.43355 4.93058 8.52389 4.9349C8.61423 4.93922 8.70171 4.96796 8.777 5.01807L19.376 12.0841C19.4445 12.1297 19.5006 12.1916 19.5395 12.2642C19.5783 12.3367 19.5986 12.4178 19.5986 12.5001C19.5986 12.5824 19.5783 12.6634 19.5395 12.736C19.5006 12.8085 19.4445 12.8704 19.376 12.9161Z" fill="#6C38DD"/>
</svg>
