<svg width="38" height="27" viewBox="0 0 38 27" fill="none" xmlns="http://www.w3.org/2000/svg">
<path d="M19.2473 3.64582C20.1519 3.14771 21.2835 3.38071 21.9178 4.19567C22.4167 4.83668 23.2398 5.13255 24.0323 4.95574L24.8961 4.76301C25.6894 4.58603 26.4804 5.06715 26.689 5.85341C26.8657 6.51961 27.469 6.98245 28.1575 6.98012L29.728 6.97479C30.4016 6.9725 30.8926 7.61223 30.7171 8.26347C30.5617 8.84008 30.9306 9.42654 31.517 9.53511L33.1284 9.83346C33.7599 9.95037 34.0074 10.7238 33.5615 11.1868C33.1609 11.6029 33.3139 12.2931 33.8525 12.5001L34.8645 12.8889C35.504 13.1346 35.5328 14.0298 34.9105 14.3169C34.3557 14.5728 34.301 15.341 34.8141 15.6725L34.9429 15.7557C35.6013 16.1811 35.3925 17.195 34.6196 17.3257L34.4685 17.3513C33.8662 17.4531 33.6129 18.1804 34.0215 18.6347C34.4798 19.1443 34.0996 19.9553 33.4151 19.9284L32.3318 19.8858C31.7552 19.8631 31.342 20.4368 31.5457 20.9773C31.7724 21.5788 31.2395 22.1915 30.6132 22.0495L29.015 21.6869C28.4333 21.555 27.8628 21.9481 27.7778 22.5392C27.6818 23.2068 26.978 23.6005 26.3601 23.3323L24.9194 22.707C24.2878 22.4328 23.5508 22.6197 23.1252 23.1619C22.623 23.8018 21.7062 23.9313 21.0474 23.4553L20.33 22.937C19.6718 22.4615 18.7988 22.4082 18.0872 22.7999C17.1826 23.2981 16.051 23.0651 15.4167 22.2501C14.9178 21.6091 14.0947 21.3132 13.3022 21.49L12.4384 21.6828C11.6452 21.8597 10.8541 21.3786 10.6455 20.5924C10.4688 19.9262 9.86552 19.4633 9.17699 19.4656L7.60646 19.471C6.93285 19.4733 6.44187 18.8335 6.61741 18.1823C6.77283 17.6057 6.40393 17.0192 5.81752 16.9107L4.20606 16.6123C3.57461 16.4954 3.32711 15.722 3.77297 15.2589C4.17359 14.8429 4.02065 14.1526 3.48199 13.9457L2.47 13.5569C1.83049 13.3112 1.80166 12.416 2.42401 12.1289C2.97885 11.8729 3.03346 11.1048 2.52039 10.7733L2.39161 10.6901C1.73325 10.2647 1.94201 9.25074 2.71487 9.12005L2.86604 9.09448C3.46834 8.99263 3.72163 8.26538 3.31304 7.81104C2.85474 7.30142 3.23486 6.49044 3.91942 6.51737L5.00269 6.55998C5.57929 6.58266 5.99247 6.00897 5.7888 5.46848C5.56213 4.86696 6.09503 4.25424 6.7213 4.3963L8.31955 4.75882C8.90116 4.89074 9.47173 4.49771 9.55674 3.9066C9.65274 3.23899 10.3565 2.84526 10.9744 3.11347L12.4151 3.7388C13.0467 4.01294 13.7837 3.82606 14.2093 3.28386C14.7115 2.64395 15.6283 2.51448 16.2871 2.99044L17.0045 3.50874C17.6627 3.98425 18.5357 4.03761 19.2473 3.64582Z" fill="#DCD5EB"/>
<path d="M10.7511 15.2708C10.3066 15.1792 9.91981 15.0249 9.59081 14.8078C9.26523 14.5886 9.01384 14.3213 8.83663 14.0058C8.66285 13.6883 8.57967 13.3372 8.58709 12.9527L9.55249 13.012C9.57366 13.3883 9.71422 13.7075 9.97418 13.9695C10.2347 14.2289 10.5657 14.3999 10.9672 14.4826C11.2168 14.5339 11.4537 14.5447 11.6781 14.5148C11.9031 14.4822 12.0928 14.41 12.2474 14.2981C12.4054 14.1841 12.5044 14.0298 12.5445 13.8351C12.5662 13.7297 12.5654 13.6323 12.5419 13.543C12.5213 13.4542 12.4827 13.373 12.4261 13.2993C12.373 13.2236 12.3021 13.154 12.2135 13.0907C12.1283 13.0252 12.0317 12.9645 11.9236 12.9084L10.4272 12.1396C10.2812 12.0644 10.1349 11.9766 9.9882 11.8759C9.84206 11.7725 9.71301 11.6516 9.60103 11.513C9.49248 11.3723 9.41359 11.2109 9.36437 11.0289C9.31571 10.8442 9.31587 10.6328 9.36485 10.395C9.43888 10.0354 9.59901 9.75137 9.84524 9.54282C10.0949 9.33216 10.4006 9.19785 10.7623 9.13988C11.1246 9.07922 11.5137 9.0917 11.9295 9.17732C12.3471 9.26894 12.7069 9.41629 13.0089 9.61937C13.3138 9.82303 13.5491 10.0744 13.7147 10.3734C13.8838 10.6702 13.9729 11.007 13.982 11.3837L12.9867 11.3393C12.9887 11.1115 12.9356 10.9047 12.8274 10.719C12.7197 10.5306 12.5726 10.3735 12.3863 10.2478C12.2004 10.1193 11.9888 10.0293 11.7513 9.97755C11.523 9.9249 11.3055 9.91393 11.0989 9.94465C10.8951 9.97597 10.7228 10.0433 10.5819 10.1468C10.4439 10.2508 10.3579 10.3853 10.324 10.5502C10.2906 10.7124 10.3137 10.8538 10.3935 10.9745C10.4733 11.0952 10.5802 11.2003 10.7143 11.2899C10.8517 11.3774 10.9897 11.4551 11.1281 11.5231L12.2099 12.0628C12.3455 12.1302 12.4969 12.2149 12.6643 12.317C12.835 12.417 12.9933 12.5411 13.1392 12.6895C13.2879 12.8385 13.3987 13.0191 13.4716 13.2314C13.545 13.4409 13.5525 13.6876 13.4941 13.9715C13.4334 14.2661 13.3169 14.5127 13.1445 14.7111C12.9726 14.9067 12.7607 15.0575 12.5087 15.1635C12.2601 15.2673 11.9846 15.3275 11.6822 15.3441C11.3799 15.3608 11.0695 15.3363 10.7511 15.2708Z" fill="#6C38DD"/>
<path d="M13.4654 15.7028L16.6811 10.2782L17.976 10.5448L18.7871 16.7985L17.8535 16.6063L17.0964 10.8963L17.3287 10.9442L14.399 15.895L13.4654 15.7028ZM14.7822 14.6002L14.9458 13.8054L18.181 14.4715L18.0173 15.2663L14.7822 14.6002Z" fill="#6C38DD"/>
<path d="M19.4728 16.9397L20.6751 11.1006L21.5742 11.2857L20.5364 16.326L23.3414 16.9036L23.1769 17.7024L19.4728 16.9397Z" fill="#6C38DD"/>
<path d="M23.7352 17.8174L24.9375 11.9782L28.8954 12.7931L28.7309 13.592L25.6721 12.9622L25.3348 14.6004L27.8773 15.1239L27.7129 15.9227L25.1704 15.3992L24.7988 17.2037L27.8576 17.8334L27.6931 18.6323L23.7352 17.8174Z" fill="#6C38DD"/>
</svg>
