<svg width="24" height="25" viewBox="0 0 24 25" fill="none" xmlns="http://www.w3.org/2000/svg">
<path d="M2.1316 14.13C1.95223 13.0507 1.95223 11.9493 2.1316 10.87C3.2336 10.896 4.2236 10.368 4.6086 9.43901C4.9936 8.50901 4.6666 7.43501 3.8686 6.67601C4.50501 5.7853 5.28416 5.00581 6.1746 4.36901C6.9346 5.16701 8.0086 5.49401 8.9386 5.10901C9.8686 4.72401 10.3956 3.73301 10.3686 2.63201C11.4485 2.45242 12.5507 2.45242 13.6306 2.63201C13.6036 3.73401 14.1316 4.72401 15.0606 5.10901C15.9906 5.49401 17.0646 5.16701 17.8236 4.36901C18.7143 5.00542 19.4938 5.78458 20.1306 6.67501C19.3326 7.43501 19.0056 8.50901 19.3906 9.43901C19.7756 10.369 20.7666 10.896 21.8676 10.869C22.0472 11.9489 22.0472 13.0511 21.8676 14.131C20.7656 14.104 19.7756 14.632 19.3906 15.561C19.0056 16.491 19.3326 17.565 20.1306 18.324C19.4942 19.2147 18.715 19.9942 17.8246 20.631C17.0646 19.833 15.9906 19.506 15.0606 19.891C14.1306 20.276 13.6036 21.267 13.6306 22.368C12.5507 22.5476 11.4485 22.5476 10.3686 22.368C10.3956 21.266 9.8676 20.276 8.9386 19.891C8.0086 19.506 6.9346 19.833 6.1756 20.631C5.28489 19.9946 4.5054 19.2154 3.8686 18.325C4.6666 17.565 4.9936 16.491 4.6086 15.561C4.2236 14.631 3.2326 14.104 2.1316 14.131V14.13ZM11.9996 15.5C12.7952 15.5 13.5583 15.1839 14.1209 14.6213C14.6835 14.0587 14.9996 13.2957 14.9996 12.5C14.9996 11.7044 14.6835 10.9413 14.1209 10.3787C13.5583 9.81608 12.7952 9.50001 11.9996 9.50001C11.204 9.50001 10.4409 9.81608 9.87828 10.3787C9.31567 10.9413 8.9996 11.7044 8.9996 12.5C8.9996 13.2957 9.31567 14.0587 9.87828 14.6213C10.4409 15.1839 11.204 15.5 11.9996 15.5Z" fill="#6C38DD"/>
</svg>
