<svg width="18" height="18" viewBox="0 0 18 18" fill="none" xmlns="http://www.w3.org/2000/svg">
<path d="M9.00027 14.6892C10.5091 14.6892 11.956 14.0898 13.0229 13.0229C14.0898 11.956 14.6892 10.5091 14.6892 9.00027C14.6892 7.49148 14.0898 6.04449 13.0229 4.97762C11.956 3.91075 10.5091 3.31138 9.00027 3.31138C7.49148 3.31138 6.04449 3.91075 4.97762 4.97762C3.91075 6.04449 3.31138 7.49148 3.31138 9.00027C3.31138 10.5091 3.91075 11.956 4.97762 13.0229C6.04449 14.0898 7.49148 14.6892 9.00027 14.6892ZM9.00027 16.1114C5.0728 16.1114 1.88916 12.9277 1.88916 9.00027C1.88916 5.0728 5.0728 1.88916 9.00027 1.88916C12.9277 1.88916 16.1114 5.0728 16.1114 9.00027C16.1114 12.9277 12.9277 16.1114 9.00027 16.1114ZM6.78872 9.83227L5.01236 9.27832C4.62836 9.16098 4.62623 8.89645 5.0984 8.70658L12.0196 6.0328C12.4214 5.86925 12.649 6.07618 12.5188 6.59458L11.3405 12.1555C11.258 12.5516 11.0198 12.6461 10.6892 12.4634L8.87512 11.1208L8.0296 11.9372C7.94285 12.0211 7.87245 12.0929 7.73876 12.1107C7.60578 12.1292 7.49627 12.0893 7.41592 11.8689L6.79725 9.82729L6.78872 9.83298V9.83227Z" fill="#6C38DD"/>
</svg>
