<svg width="18" height="18" viewBox="0 0 18 18" fill="none" xmlns="http://www.w3.org/2000/svg">
<path d="M14.409 5.44081C14.3549 5.2289 14.2013 5.0689 14.0257 5.01983C13.7149 4.93237 12.2003 4.73326 9.00027 4.73326C5.80027 4.73326 4.28703 4.93237 3.97343 5.01983C3.79992 5.06819 3.64632 5.22819 3.59156 5.44081C3.51405 5.74232 3.31138 7.00597 3.31138 8.99992C3.31138 10.9939 3.51405 12.2568 3.59156 12.5597C3.6456 12.7709 3.7992 12.9309 3.97414 12.9793C4.28703 13.0675 5.80027 13.2666 9.00027 13.2666C12.2003 13.2666 13.7142 13.0675 14.0271 12.98C14.2006 12.9317 14.3542 12.7717 14.409 12.559C14.4865 12.2575 14.6892 10.991 14.6892 8.99992C14.6892 7.00881 14.4865 5.74303 14.409 5.44081ZM15.7864 5.08739C16.1114 6.35459 16.1114 8.99992 16.1114 8.99992C16.1114 8.99992 16.1114 11.6453 15.7864 12.9125C15.6058 13.6129 15.0774 14.164 14.4083 14.3503C13.193 14.6888 9.00027 14.6888 9.00027 14.6888C9.00027 14.6888 4.80969 14.6888 3.59227 14.3503C2.92027 14.1612 2.39263 13.6108 2.21414 12.9125C1.88916 11.6453 1.88916 8.99992 1.88916 8.99992C1.88916 8.99992 1.88916 6.35459 2.21414 5.08739C2.39476 4.38695 2.92312 3.83584 3.59227 3.64952C4.80969 3.31104 9.00027 3.31104 9.00027 3.31104C9.00027 3.31104 13.193 3.31104 14.4083 3.64952C15.0803 3.83868 15.6079 4.38908 15.7864 5.08739V5.08739ZM7.57805 11.4888V6.51103L11.8447 8.99992L7.57805 11.4888Z" fill="#6C38DD"/>
</svg>
